<?xml version="1.0" encoding="utf-8"?>
<!-- Uploaded to: SVG Repo, www.svgrepo.com, Generator: SVG Repo Mixer Tools -->
<svg width="800px" height="800px" viewBox="0 0 1024 1024" class="icon"  version="1.1" xmlns="http://www.w3.org/2000/svg"><path d="M96 320h832v704H96z" fill="#EAEAEA" /><path d="M238.24 1024A126.656 126.656 0 0 0 256 960a128 128 0 0 0-256 0c0 23.424 6.752 45.088 17.76 64h220.48zM896 832a127.744 127.744 0 0 0-116.224 75.04A94.848 94.848 0 0 0 736 896a96 96 0 0 0-96 96c0 11.296 2.304 21.952 5.888 32h360.384A126.944 126.944 0 0 0 1024 960a128 128 0 0 0-128-128z" fill="#3AAD73" /><path d="M779.776 907.04A94.848 94.848 0 0 0 736 896a96 96 0 0 0-96 96c0 11.296 2.304 21.952 5.888 32h139.872A126.656 126.656 0 0 1 768 960c0-18.944 4.384-36.768 11.776-52.96z" fill="" /><path d="M864 0v128a32 32 0 0 1-32 32h-64a32 32 0 0 1-32-32V0h-160v128a32 32 0 0 1-32 32h-64a32 32 0 0 1-32-32V0H288v128a32 32 0 0 1-32 32H192a32 32 0 0 1-32-32V0H0v288a32 32 0 0 0 32 32h960a32 32 0 0 0 32-32V0h-160z" fill="#EAEAEA" /><path d="M96 320h832v32H96z" fill="" /><path d="M512 704a128 128 0 0 0-128 128v192h256v-192a128 128 0 0 0-128-128z" fill="#434854" /><path d="M512 704a128 128 0 0 0-128 128v32a128 128 0 0 1 256 0v-32a128 128 0 0 0-128-128z" fill="" /><path d="M736 448a64 64 0 0 0-64 64v128h128v-128a64 64 0 0 0-64-64zM288 448a64 64 0 0 0-64 64v128h128v-128a64 64 0 0 0-64-64z" fill="#469FCC" /><path d="M736 448a64 64 0 0 0-64 64v32a64 64 0 0 1 128 0v-32a64 64 0 0 0-64-64zM288 448a64 64 0 0 0-64 64v32a64 64 0 0 1 128 0v-32a64 64 0 0 0-64-64z" fill="" /></svg>